<?xml version="1.0" encoding="UTF-8" standalone="no"?>
<!-- Generator: Adobe Illustrator 14.0.0, SVG Export Plug-In . SVG Version: 6.00 Build 43363)  -->

<svg
   xmlns:dc="http://purl.org/dc/elements/1.1/"
   xmlns:cc="http://creativecommons.org/ns#"
   xmlns:rdf="http://www.w3.org/1999/02/22-rdf-syntax-ns#"
   xmlns:svg="http://www.w3.org/2000/svg"
   xmlns="http://www.w3.org/2000/svg"
   xmlns:xlink="http://www.w3.org/1999/xlink"
   xmlns:sodipodi="http://sodipodi.sourceforge.net/DTD/sodipodi-0.dtd"
   xmlns:inkscape="http://www.inkscape.org/namespaces/inkscape"
   version="1.2"
   x="0px"
   y="0px"
   width="35mm"
   height="36mm"
   viewBox="0 0 124.01574 127.55905"
   xml:space="preserve"
   id="svg2"
   inkscape:version="0.91 r13725"
   sodipodi:docname="BreadboardViewGraphic_Template.svg"><metadata
   id="metadata2942"><rdf:RDF><cc:Work
       rdf:about=""><dc:format>image/svg+xml</dc:format><dc:type
         rdf:resource="http://purl.org/dc/dcmitype/StillImage" /><dc:title></dc:title></cc:Work></rdf:RDF></metadata><defs
   id="defs2940"><filter
     inkscape:collect="always"
     id="filter5708"
     style="color-interpolation-filters:sRGB"><feGaussianBlur
       inkscape:collect="always"
       stdDeviation="28.132071"
       id="feGaussianBlur5710" /></filter><linearGradient
     id="linearGradient5712"><stop
       offset="0"
       style="stop-color:#cccccc"
       id="stop5714" /><stop
       offset=".12299"
       style="stop-color:#ffffff;stop-opacity:0"
       id="stop5716" /><stop
       offset="1"
       style="stop-color:#999999;stop-opacity:.63813"
       id="stop5718" /></linearGradient><linearGradient
     inkscape:collect="always"
     x1="-914.59003"
     y1="-906.90997"
     gradientTransform="matrix(0.08620765,0,0,0.08620765,-1202.7335,199.60934)"
     x2="298.10999"
     gradientUnits="userSpaceOnUse"
     xlink:href="#linearGradient5712"
     y2="276.98999"
     id="linearGradient6990" /></defs><sodipodi:namedview
   pagecolor="#ffffff"
   bordercolor="#666666"
   borderopacity="1"
   objecttolerance="10"
   gridtolerance="10"
   guidetolerance="10"
   inkscape:pageopacity="0"
   inkscape:pageshadow="2"
   inkscape:window-width="1762"
   inkscape:window-height="1058"
   id="namedview2938"
   showgrid="false"
   inkscape:zoom="6.922284"
   inkscape:cx="62.007874"
   inkscape:cy="63.779528"
   inkscape:window-x="1516"
   inkscape:window-y="-8"
   inkscape:window-maximized="1"
   inkscape:current-layer="svg2"
   units="mm" />


<g
   id="g4260"
   transform="translate(-231.17528,402.44377)"><g
     transform="matrix(0.69999998,0,0,0.69999998,1143.3319,-468.82236)"
     id="g8158"><rect
       id="rect3007"
       style="fill:#000000"
       rx="11.146649"
       ry="11.146649"
       height="177.16536"
       width="177.16536"
       y="95.194633"
       x="-1303.0809" /><rect
       id="rect3777"
       style="fill:#333333"
       rx="7.8214474"
       ry="7.8214474"
       height="169.1739"
       width="169.1739"
       y="99.191216"
       x="-1299.0895" /><rect
       id="rect3779"
       style="fill:#000000"
       rx="6.0797949"
       ry="6.0797949"
       height="164.64799"
       width="164.64799"
       y="101.45503"
       x="-1296.8223" /><rect
       id="rect3788"
       style="fill:#333333"
       rx="1.9396722"
       ry="1.9396722"
       height="3.8793445"
       width="8.4360228"
       y="194.76361"
       x="-1147.3752" /><path
       id="path3796"
       d="m -1275.0893,112.69651 c -5.8162,0 -10.4984,4.68211 -10.4984,10.49837 l 0,121.16485 c 0,5.81617 4.6821,10.49837 10.4984,10.49837 l 58.6488,0 c 2.5571,0 4.0617,-0.34739 5.5905,-1.87321 l 65.1583,-65.02988 c 2.0561,-2.052 2.2717,-3.52554 2.2717,-6.24772 l 0,-58.52034 c 0,-5.81618 -4.6821,-10.49837 -10.4983,-10.49837 z"
       sodipodi:nodetypes="sssssssssss"
       style="fill:#333333"
       inkscape:connector-curvature="0" /><path
       id="path5147"
       style="fill:#000000"
       inkscape:connector-curvature="0"
       d="m -1197.6843,235.89759 37.8081,-36.94601 -38.3012,0 z" /><path
       id="path4313"
       style="fill:#808080"
       d="m -1184.7064,214.15602 -1.9288,-4.76616 c -0.3233,-0.79867 0.7313,-1.83192 0.5955,-2.69891 l -0.6093,-3.88856 2.4344,-0.98519 2.2666,3.21788 c 0.5053,0.71737 1.9818,0.72637 2.3049,1.52501 l 1.9289,4.76616"
       inkscape:transform-center-x="2.9867533"
       inkscape:transform-center-y="-9.7192553"
       inkscape:connector-curvature="0"
       sodipodi:nodetypes="cssccscc" /><path
       id="path4263"
       style="fill:#e6e6e6"
       inkscape:connector-curvature="0"
       d="m -1183.275,215.94914 -4.1872,-4.67987 2.8941,-2.89408 4.6799,4.67987" /><path
       id="path4265"
       sodipodi:nodetypes="ccccccccccc"
       style="fill:#cccccc"
       inkscape:connector-curvature="0"
       d="m -1191.0955,229.49236 -3.202,-3.14046 0.9853,-1.10837 2.6478,0.5542 4.6798,-4.67987 c -0.5836,-1.27829 -0.2373,-1.96476 0.9852,-2.09364 -1.6322,-5.92023 4.298,-9.86474 8.8673,-7.75869 l 5.2341,-5.17246 -1.0469,-2.58623 0.9853,-0.86208 3.5714,3.01727" /><path
       id="rect3781"
       style="fill:#e1e1d1"
       inkscape:connector-curvature="0"
       d="m -1273.7531,114.26376 c -5.688,0 -10.2665,4.57884 -10.2665,10.26647 l 0,118.49242 c 0,5.68798 4.5789,10.26647 10.2665,10.26647 l 57.3548,0 c 2.5007,0 3.3771,-0.33829 4.8708,-1.83191 l 64.3178,-64.30229 c 2.0088,-2.00881 2.2225,-2.72321 2.2225,-5.3853 l 0,-57.23154 c 0,-5.68798 -4.5788,-10.26647 -10.2665,-10.26647 l -118.4924,0 z m 94.5439,86.2249 16.32,0 -33.3917,32.94511 0,-15.42599 c 0,-9.24232 7.8283,-17.51912 17.0717,-17.51912 z" /><path
       id="path5854"
       d="m -823.78,1579.8 c -65.979,0 -119.09,53.114 -119.09,119.09 l 0,1374.5 c 0,51.168 31.947,94.61 77.062,111.53 -1.8213,-8.3056 -2.7812,-16.944 -2.7812,-25.813 l 0,-1374.5 c 0,-65.979 53.114,-119.09 119.09,-119.09 l 1374.5,0 c 14.812,0 28.972,2.6957 42.031,7.5938 -11.729,-53.488 -59.201,-93.312 -116.31,-93.312 l -1374.5,0 z"
       style="opacity:0.85773998;fill:#000000;filter:url(#filter5708)"
       transform="matrix(0.08939734,0,0,0.08939734,-1202.38,-30.165087)"
       inkscape:connector-curvature="0" /><path
       id="path4143"
       sodipodi:nodetypes="cccccccccccc"
       style="color:#000000;text-indent:0;text-transform:none;block-progression:tb;fill:#000000"
       inkscape:connector-curvature="0"
       d="m -1257.0797,143.04419 -0.1023,-0.47683 -2.6105,-12.16563 1.1799,0 2.3977,10.90786 2.9203,-10.90786 1.1665,0 -3.1816,12.1958 -0.1212,0.4472 -0.4634,0 -0.695,0 z" /><path
       id="path3927"
       style="color:#000000;text-indent:0;text-transform:none;block-progression:tb;fill:#000000"
       d="m -1272.9427,217.52674 a 0.30176127,0.30176127 0 0 0 0.093,0.59189 l 10.3432,-0.0117 a 0.30176127,0.30176127 0 1 0 0,-0.60342 l -10.3432,0.0117 a 0.30176127,0.30176127 0 0 0 -0.091,0.0115 z"
       inkscape:transform-center-x="88.459405"
       inkscape:transform-center-y="0.10585061"
       inkscape:connector-curvature="0" /><path
       id="path3959"
       style="color:#000000;text-indent:0;text-transform:none;block-progression:tb;fill:#000000"
       d="m -1272.5548,209.52494 c -0.148,0.0162 -0.2717,0.15662 -0.269,0.30552 0,0.14889 0.1315,0.28473 0.28,0.29544 l 10.9639,0.92716 c 0.158,0.0144 0.3147,-0.11692 0.3281,-0.27499 0.013,-0.15807 -0.1189,-0.31394 -0.2771,-0.32635 l -10.9639,-0.92716 c -0.021,-0.002 -0.041,-0.002 -0.062,0 z m 13.7932,1.16726 c -0.1484,-0.0126 -0.2717,0.15661 -0.269,0.30551 0,0.14889 0.1315,0.28473 0.28,0.29544 l 0.3874,0.032 c 0.1579,0.0144 0.3146,-0.11693 0.328,-0.27499 0.013,-0.15807 -0.1189,-0.31393 -0.277,-0.32635 l -0.3873,-0.032 c -0.021,-0.002 -0.042,-0.002 -0.062,0 z"
       inkscape:transform-center-x="86.20753"
       inkscape:transform-center-y="-7.2899342"
       inkscape:connector-curvature="0"
       sodipodi:nodetypes="csccsccccssccscccs" /><path
       id="rect4112"
       style="color:#000000;text-indent:0;text-transform:none;block-progression:tb;fill:#000000"
       inkscape:connector-curvature="0"
       d="m -1224.2863,161.10383 c -1.2946,0 -2.3465,1.05182 -2.3465,2.34649 l 0,3.4833 c 0,1.29467 1.0519,2.34916 2.3465,2.34916 1.2947,0 2.3492,-1.05449 2.3492,-2.34916 l 0,-3.4833 c 0,-1.29467 -1.0545,-2.34649 -2.3492,-2.34649 z m 0,0.68966 c 0.9246,0 1.6595,0.73227 1.6595,1.65683 l 0,3.4833 c 0,0.92458 -0.7349,1.6595 -1.6595,1.6595 -0.9245,0 -1.6568,-0.73495 -1.6568,-1.6595 l 0,-3.4833 c 0,-0.92458 0.7323,-1.65683 1.6568,-1.65683 z" /><path
       id="rect4114"
       style="color:#000000;text-indent:0;text-transform:none;block-progression:tb;fill:#000000"
       inkscape:connector-curvature="0"
       d="m -1218.0604,161.10383 c -1.2946,0 -2.3464,1.05182 -2.3464,2.34649 l 0,3.4833 c 0,1.29467 1.0518,2.34916 2.3464,2.34916 1.2947,0 2.3492,-1.05449 2.3492,-2.34916 l 0,-3.4833 c 0,-1.29467 -1.0545,-2.34649 -2.3492,-2.34649 z m 0,0.68966 c 0.9245,0 1.6595,0.73227 1.6595,1.65683 l 0,3.4833 c 0,0.92458 -0.7349,1.6595 -1.6595,1.6595 -0.9245,0 -1.6568,-0.73495 -1.6568,-1.6595 l 0,-3.4833 c 0,-0.92458 0.7323,-1.65683 1.6568,-1.65683 z" /><path
       id="rect4116"
       style="color:#000000;text-indent:0;text-transform:none;block-progression:tb;fill:#000000"
       inkscape:connector-curvature="0"
       d="m -1239.1985,181.56953 c -1.2946,0 -2.3491,1.05182 -2.3491,2.34648 l 0,3.48331 c 0,1.29467 1.0545,2.34916 2.3491,2.34916 1.2947,0 2.3465,-1.05449 2.3465,-2.34916 l 0,-3.48331 c 0,-1.29466 -1.0518,-2.34648 -2.3465,-2.34648 z m 0,0.68966 c 0.9246,0 1.6569,0.73226 1.6569,1.65682 l 0,3.48331 c 0,0.92458 -0.7323,1.6595 -1.6569,1.6595 -0.9245,0 -1.6595,-0.73496 -1.6595,-1.6595 l 0,-3.48331 c 0,-0.92457 0.735,-1.65682 1.6595,-1.65682 z" /><path
       id="rect4118"
       style="color:#000000;text-indent:0;text-transform:none;block-progression:tb;fill:#000000"
       inkscape:connector-curvature="0"
       d="m -1232.9726,181.56953 c -1.2946,0 -2.3491,1.05182 -2.3491,2.34648 l 0,3.48331 c 0,1.29467 1.0545,2.34916 2.3491,2.34916 1.2947,0 2.3465,-1.05449 2.3465,-2.34916 l 0,-3.48331 c 0,-1.29466 -1.0518,-2.34648 -2.3465,-2.34648 z m 0,0.68966 c 0.9245,0 1.6569,0.73226 1.6569,1.65682 l 0,3.48331 c 0,0.92458 -0.7323,1.6595 -1.6569,1.6595 -0.9245,0 -1.6594,-0.73496 -1.6594,-1.6595 l 0,-3.48331 c 0,-0.92457 0.7349,-1.65682 1.6594,-1.65682 z" /><path
       id="path4122"
       style="color:#000000;text-indent:0;text-transform:none;block-progression:tb;fill:#000000"
       inkscape:connector-curvature="0"
       d="m -1245.9606,181.56694 c -1.255,0 -2.2926,0.98587 -2.2926,2.21174 a 0.34486509,0.34486509 0 1 0 0.6897,0 c 0,-0.83689 0.705,-1.52208 1.6029,-1.52208 0.8979,0 1.6056,0.68521 1.6056,1.52208 0,0.29473 -0.026,0.53788 -0.1697,0.78665 -0.1438,0.24877 -0.4223,0.52829 -1.0048,0.82436 -1.3242,0.67292 -2.6145,2.00243 -2.8287,3.97633 a 0.34486509,0.34486509 0 0 0 0.3422,0.38254 l 3.9628,0 a 0.34486509,0.34486509 0 1 0 0,-0.68966 l -3.5534,0 c 0.2983,-1.49794 1.3157,-2.51054 2.387,-3.05502 0.6599,-0.33539 1.0631,-0.70048 1.2904,-1.09381 0.2273,-0.39327 0.264,-0.79291 0.264,-1.13147 0,-1.22587 -1.0402,-2.21175 -2.2953,-2.21175 z" /><path
       id="rect4130"
       style="color:#000000;text-indent:0;text-transform:none;block-progression:tb;fill:#000000"
       inkscape:connector-curvature="0"
       d="m -1180.4409,142.55539 c -1.2946,0 -2.3464,1.05182 -2.3464,2.34649 l 0,3.4833 c 0,1.29467 1.0518,2.34916 2.3464,2.34916 1.2947,0 2.3492,-1.05449 2.3492,-2.34916 l 0,-3.4833 c 0,-1.29467 -1.0545,-2.34649 -2.3492,-2.34649 z m 0,0.68966 c 0.9246,0 1.6595,0.73227 1.6595,1.65683 l 0,3.4833 c 0,0.92458 -0.7349,1.6595 -1.6595,1.6595 -0.9244,0 -1.6568,-0.73495 -1.6568,-1.6595 l 0,-3.4833 c 0,-0.92458 0.7323,-1.65683 1.6568,-1.65683 z" /><path
       id="path4132"
       style="color:#000000;text-indent:0;text-transform:none;block-progression:tb;fill:#000000"
       inkscape:connector-curvature="0"
       d="m -1188.5394,142.55281 a 0.34486509,0.34486509 0 0 0 -0.3448,0.34483 l 0,3.21123 a 0.34486509,0.34486509 0 0 0 0.6357,0.18319 c 0.2586,-0.40977 0.9659,-0.69505 1.5814,-0.69505 0.9214,0 1.6595,0.74553 1.6595,1.69183 l 0,1.06415 c 0,0.9463 -0.738,1.69182 -1.6595,1.69182 -0.6212,0 -1.303,-0.37298 -1.5706,-0.8513 a 0.34552889,0.34552889 0 1 0 -0.6034,0.33675 c 0.4203,0.75134 1.299,1.20424 2.174,1.20424 1.2978,0 2.3492,-1.07122 2.3492,-2.38149 l 0,-1.06415 c 0,-1.31035 -1.0514,-2.38148 -2.3492,-2.38148 -0.5166,0 -1.0738,0.12596 -1.5275,0.4041 l 0,-2.06899 3.0523,0 a 0.34486509,0.34486509 0 1 0 0,-0.68966 l -3.3971,0 z" /><path
       id="path4159"
       style="color:#000000;text-indent:0;text-transform:none;block-progression:tb;fill:#000000"
       inkscape:connector-curvature="0"
       d="m -1264.6427,229.7596 a 0.21553637,0.21553637 0 0 0 -0.1562,0.0727 l -0.6735,0.76779 a 0.21567766,0.21567766 0 1 0 0.3233,0.28556 l 0.2963,-0.33675 0,3.42943 a 0.21553637,0.21553637 0 1 0 0.431,0 l 0,-4.00332 a 0.21553637,0.21553637 0 0 0 -0.2209,-0.21551 z" /><path
       id="path4161"
       style="color:#000000;text-indent:0;text-transform:none;block-progression:tb;fill:#000000"
       inkscape:connector-curvature="0"
       d="m -1262.7616,229.7596 a 0.21553637,0.21553637 0 0 0 -0.194,0.21552 l 0,1.71605 a 0.21553637,0.21553637 0 0 0 0.3987,0.11315 c 0.1295,-0.20518 0.4985,-0.35561 0.819,-0.35561 0.4756,0 0.854,0.38339 0.854,0.87286 l 0,0.56843 c 0,0.48947 -0.3784,0.87286 -0.854,0.87286 -0.3207,0 -0.6774,-0.19573 -0.8136,-0.43913 a 0.21587258,0.21587258 0 1 0 -0.3771,0.21013 c 0.2316,0.41403 0.7114,0.66003 1.1907,0.66003 0.7108,0 1.285,-0.58691 1.285,-1.30389 l 0,-0.56843 c 0,-0.71698 -0.5742,-1.30389 -1.285,-1.30389 -0.2656,0 -0.5468,0.0674 -0.7867,0.20205 l 0,-1.02915 1.6002,0 a 0.21553637,0.21553637 0 1 0 0,-0.43104 l -1.8157,0 a 0.21553637,0.21553637 0 0 0 -0.022,0 z" /><path
       id="path4165"
       style="fill:#000000"
       inkscape:connector-curvature="0"
       d="m -1263.559,233.63895 c -0.1924,0 -0.3502,0.15784 -0.3502,0.35022 0,0.17009 0.1216,0.30891 0.2828,0.33944 -0.03,0.14157 -0.071,0.30755 -0.1401,0.55226 0.2913,-0.28876 0.4378,-0.52972 0.5227,-0.74893 0,-0.003 0,-0.005 0.01,-0.008 l 0,-0.003 c 0.017,-0.041 0.027,-0.0848 0.027,-0.132 0,-0.19238 -0.1551,-0.35022 -0.3475,-0.35022 z" /><path
       id="path4170"
       style="color:#000000;text-indent:0;text-transform:none;block-progression:tb;fill:#000000"
       inkscape:connector-curvature="0"
       d="m -1272.6065,230.73375 c -0.4699,0.002 -0.9454,0.1657 -1.3793,0.57383 a 0.21631224,0.21631224 0 1 0 0.2963,0.31519 c 0.4884,-0.45936 0.9443,-0.52874 1.4602,-0.42026 0.5158,0.10847 1.0779,0.42154 1.6487,0.75162 0.5708,0.33008 1.1505,0.67677 1.7511,0.82166 0.6005,0.14491 1.2407,0.0613 1.7995,-0.45528 a 0.21638121,0.21638121 0 1 0 -0.2936,-0.31789 c -0.4629,0.4279 -0.8997,0.47784 -1.4062,0.35561 -0.5067,-0.12223 -1.0628,-0.44479 -1.6353,-0.77587 -0.5725,-0.33109 -1.1613,-0.67098 -1.7754,-0.80012 -0.1535,-0.0323 -0.3094,-0.0493 -0.466,-0.0485 z" /><path
       id="path4172"
       style="color:#000000;text-indent:0;text-transform:none;block-progression:tb;fill:#000000"
       inkscape:connector-curvature="0"
       d="m -1253.2124,227.74235 c -0.1425,0 -0.2626,0.0895 -0.3098,0.21551 l -2.9876,1.05872 0,-0.80011 a 0.21553637,0.21553637 0 0 0 -0.2182,-0.21822 0.21553637,0.21553637 0 0 0 -0.2128,0.21822 l 0,0.95363 -0.9672,0.34213 a 0.21553637,0.21553637 0 0 0 0,0.4068 l 0.9672,0.33944 0,0.4445 -0.9672,0.34215 a 0.21553637,0.21553637 0 0 0 0,0.40678 l 0.9672,0.34214 0,0.44182 -0.9672,0.34213 a 0.21553637,0.21553637 0 0 0 0,0.4068 l 4.3858,1.55441 c 0.047,0.12601 0.1673,0.21822 0.3098,0.21822 0.1836,0 0.3314,-0.15051 0.3314,-0.33406 0,-0.18355 -0.1478,-0.33136 -0.3314,-0.33136 -0.06,0 -0.1156,0.0178 -0.1643,0.0458 l -3.1331,-1.1126 a 0.21553637,0.21553637 0 0 0 0,-0.0162 l 0,-0.46606 0.9105,-0.32328 a 0.21553637,0.21553637 0 0 0 0,-0.40679 l -0.9105,-0.32328 0,-0.48492 0.9105,-0.32328 a 0.21553637,0.21553637 0 0 0 0,-0.4041 l -0.9105,-0.32328 0,-0.48222 3.1331,-1.10992 c 0.049,0.028 0.1041,0.0458 0.1643,0.0458 0.1836,0 0.3314,-0.1505 0.3314,-0.33405 0,-0.18354 -0.1478,-0.33136 -0.3314,-0.33136 z m -3.7285,1.88312 0,0.1778 -0.2505,-0.0889 0.2505,-0.0889 z m 0.4311,0.78395 0.1966,0.07 -0.1966,0.0701 0,-0.14009 z m -0.4311,0.74893 0,0.1778 -0.2505,-0.0889 0.2505,-0.0889 z m 0.4311,0.78933 0.1939,0.0674 -0.1939,0.0673 0,-0.1347 z m -0.4311,0.74624 0,0.17781 -0.2505,-0.0889 0.2505,-0.0889 z" /><path
       id="path4195"
       style="color:#000000;text-indent:0;text-transform:none;block-progression:tb;fill:#000000"
       inkscape:connector-curvature="0"
       d="m -1247.6968,227.65614 a 0.21553637,0.21553637 0 0 0 -0.1538,0.0948 l -1.2689,1.89433 -2.1917,0.62289 a 0.21553637,0.21553637 0 0 0 -0.1102,0.34093 l 1.4098,1.79174 -0.082,2.27881 a 0.21553637,0.21553637 0 0 0 0.2897,0.20763 l 2.1378,-0.78438 2.1404,0.78181 a 0.21553637,0.21553637 0 0 0 0.2897,-0.21019 l -0.087,-2.27622 1.4048,-1.79433 a 0.21553637,0.21553637 0 0 0 -0.1103,-0.34093 l -2.1916,-0.62289 -1.2714,-1.88915 a 0.21553637,0.21553637 0 0 0 -0.2051,-0.0948 z m 0.026,0.60239 1.1381,1.68924 a 0.21553637,0.21553637 0 0 0 0.1205,0.0872 l 1.9584,0.55624 -1.2561,1.60209 a 0.21553637,0.21553637 0 0 0 -0.046,0.14098 l 0.077,2.03528 -1.9123,-0.69724 a 0.21553637,0.21553637 0 0 0 -0.1486,0 l -1.9123,0.70236 0.074,-2.03787 a 0.21553637,0.21553637 0 0 0 -0.046,-0.14098 l -1.256,-1.5995 1.9558,-0.5588 a 0.21553637,0.21553637 0 0 0 0.1205,-0.0872 l 1.133,-1.69182 z" /><path
       id="path4201"
       style="color:#000000;text-indent:0;text-transform:none;block-progression:tb;fill:#000000"
       inkscape:connector-curvature="0"
       d="m -1247.7011,230.39754 c -0.4183,0 -0.7597,0.34145 -0.7597,0.75971 a 0.18437231,0.18437231 0 1 0 0.3663,0 c 0,-0.219 0.1744,-0.39063 0.3934,-0.39063 0.219,0 0.3933,0.17163 0.3933,0.39063 0,0.06 -0.015,0.0931 -0.078,0.16972 -0.063,0.0766 -0.1711,0.18016 -0.2937,0.32867 l -0.8055,0.97518 a 0.18437231,0.18437231 0 0 0 0.1428,0.30173 l 1.3281,0 a 0.18454041,0.18454041 0 0 0 0,-0.36908 l -0.9375,0 0.555,-0.6735 c 0.1075,-0.13026 0.2072,-0.2235 0.2936,-0.32867 0.086,-0.10515 0.1643,-0.24231 0.1643,-0.4041 0,-0.41825 -0.3441,-0.7597 -0.7624,-0.7597 z" /><path
       id="path4204"
       style="color:#000000;text-indent:0;text-transform:none;block-progression:tb;fill:#000000"
       inkscape:connector-curvature="0"
       d="m -1241.7459,229.39753 a 0.21553637,0.21553637 0 0 0 -0.194,0.21552 l 0,3.41865 a 0.21553637,0.21553637 0 0 0 0.2371,0.21552 l 0,0 0.7381,0 c 0.6584,0 1.1935,-0.53772 1.1935,-1.19613 0,-0.65842 -0.535,-1.19346 -1.1935,-1.19346 l -0.5469,0 0,-1.02915 1.2204,0 a 0.21553637,0.21553637 0 1 0 0,-0.43103 l -1.4359,0 a 0.21553637,0.21553637 0 0 0 -0.021,0 z m 0.2371,1.89123 0.5468,0 c 0.4271,0 0.7624,0.33532 0.7624,0.7624 0,0.42707 -0.3353,0.76509 -0.7624,0.76509 l -0.5468,0 0,-1.52751 z" /><path
       id="path4213"
       style="color:#000000;text-indent:0;text-transform:none;block-progression:tb;fill:#000000"
       inkscape:connector-curvature="0"
       d="m -1237.2416,228.07856 a 0.18437231,0.18437231 0 0 0 -0.1831,0.18857 l 0,5.92144 a 0.1845361,0.1845361 0 0 0 0.369,0 l 0,-5.92144 a 0.18437231,0.18437231 0 0 0 -0.1859,-0.18857 z" /><path
       id="path4215"
       style="color:#000000;text-indent:0;text-transform:none;block-progression:tb;fill:#000000"
       inkscape:connector-curvature="0"
       d="m -1239.7442,234.00964 a 0.21580053,0.21580053 0 1 0 0.022,0.43104 l 4.965,0 a 0.21553637,0.21553637 0 1 0 0,-0.43104 l -4.965,0 a 0.21553637,0.21553637 0 0 0 -0.022,0 z" /><path
       id="path4217"
       style="color:#000000;text-indent:0;text-transform:none;block-progression:tb;fill:#000000"
       inkscape:connector-curvature="0"
       d="m -1265.7366,237.7683 a 0.24058832,0.24058832 0 0 0 -0.2172,0.24056 l 0,2.87339 a 0.24058832,0.24058832 0 1 0 0.4811,0 l 0,-2.63279 0.8954,0 a 0.24058832,0.24058832 0 1 0 0,-0.48112 l -1.1359,0 a 0.24058832,0.24058832 0 0 0 -0.023,0 z" /><path
       id="rect4219"
       style="color:#000000;text-indent:0;text-transform:none;block-progression:tb;fill:#000000"
       inkscape:connector-curvature="0"
       d="m -1263.1073,237.7683 c -0.6302,0 -1.146,0.51579 -1.146,1.14604 l 0,1.06579 c 0,0.63021 0.5158,1.14268 1.146,1.14268 0.6302,0 1.146,-0.51246 1.146,-1.14268 l 0,-1.06579 c 0,-0.63021 -0.5158,-1.14604 -1.146,-1.14604 z m 0,0.48112 c 0.372,0 0.6649,0.29289 0.6649,0.66489 l 0,1.06578 c 0,0.372 -0.2929,0.66155 -0.6649,0.66155 -0.372,0 -0.6649,-0.28955 -0.6649,-0.66155 l 0,-1.06578 c 0,-0.372 0.2929,-0.66489 0.6649,-0.66489 z" /><path
       id="rect4221"
       style="color:#000000;text-indent:0;text-transform:none;block-progression:tb;fill:#000000"
       inkscape:connector-curvature="0"
       d="m -1260.7323,237.7683 c -0.6302,0 -1.146,0.51579 -1.146,1.14604 l 0,1.06579 c 0,0.63021 0.5158,1.14268 1.146,1.14268 0.5307,0 0.9814,-0.36176 1.1093,-0.85534 a 0.24058832,0.24058832 0 1 0 -0.4645,-0.12027 c -0.074,0.28546 -0.3316,0.49448 -0.6448,0.49448 -0.372,0 -0.6649,-0.28955 -0.6649,-0.66155 l 0,-1.06578 c 0,-0.372 0.2929,-0.66489 0.6649,-0.66489 0.3129,0 0.5673,0.20943 0.6415,0.49449 a 0.24150783,0.24150783 0 1 0 0.4678,-0.12028 c -0.1284,-0.49288 -0.5791,-0.85533 -1.1093,-0.85533 z" /><path
       id="path4224"
       style="color:#000000;text-indent:0;text-transform:none;block-progression:tb;fill:#000000"
       inkscape:connector-curvature="0"
       d="m -1258.4762,237.7683 a 0.24058832,0.24058832 0 0 0 -0.2139,0.2439 l 0,2.87339 a 0.2406,0.2406 0 1 0 0.4812,0 l 0,-2.87339 a 0.24058832,0.24058832 0 0 0 -0.2673,-0.2439 z" /><path
       id="path4226"
       style="color:#000000;text-indent:0;text-transform:none;block-progression:tb;fill:#000000"
       inkscape:connector-curvature="0"
       d="m -1259.2116,237.7683 a 0.24084694,0.24084694 0 1 0 0.023,0.48112 l 1.4768,0 a 0.24058832,0.24058832 0 1 0 0,-0.48112 l -1.4768,0 a 0.24058832,0.24058832 0 0 0 -0.023,0 z" /><path
       id="path4232"
       style="color:#000000;text-indent:0;text-transform:none;block-progression:tb;fill:#000000"
       inkscape:connector-curvature="0"
       d="m -1254.8314,237.7683 c -0.473,0 -0.862,0.38902 -0.862,0.86201 0,0.47299 0.389,0.86202 0.862,0.86202 0.473,0 0.862,-0.38903 0.862,-0.86202 0,-0.47299 -0.389,-0.86201 -0.862,-0.86201 z m 0,0.48112 c 0.213,0 0.3809,0.16792 0.3809,0.38089 0,0.21297 -0.1679,0.38089 -0.3809,0.38089 -0.2129,0 -0.3809,-0.16792 -0.3809,-0.38089 0,-0.21297 0.168,-0.38089 0.3809,-0.38089 z" /><path
       id="path4234"
       style="color:#000000;text-indent:0;text-transform:none;block-progression:tb;fill:#000000"
       inkscape:connector-curvature="0"
       d="m -1254.8314,239.00106 c -0.5848,0 -1.0633,0.47853 -1.0633,1.06338 0,0.58482 0.4785,1.06337 1.0633,1.06337 0.5849,0 1.0634,-0.47853 1.0634,-1.06337 0,-0.58483 -0.4785,-1.06338 -1.0634,-1.06338 z m 0,0.47851 c 0.3248,0 0.5849,0.26004 0.5849,0.58485 0,0.3248 -0.2601,0.58484 -0.5849,0.58484 -0.3248,0 -0.5848,-0.26004 -0.5848,-0.58484 0,-0.32481 0.26,-0.58485 0.5848,-0.58485 z" /><path
       id="path4236"
       style="color:#000000;text-indent:0;text-transform:none;block-progression:tb;fill:#000000"
       inkscape:connector-curvature="0"
       d="m -1253.2908,237.7683 a 0.24093851,0.24093851 0 1 0 0.027,0.48112 l 0.8453,0 c -0.357,0.70265 -0.647,1.57346 -0.8921,2.57606 a 0.24069784,0.24069784 0 0 0 0.4678,0.1136 c 0.2822,-1.15466 0.6191,-2.13174 1.0257,-2.80657 a 0.24058832,0.24058832 0 0 0 -0.2072,-0.36419 l -1.2396,0 a 0.24058832,0.24058832 0 0 0 -0.027,0 z" /><path
       id="path4240"
       style="color:#000000;text-indent:0;text-transform:none;block-progression:tb;fill:#000000"
       inkscape:connector-curvature="0"
       d="m -1250.2072,237.7683 a 0.24058832,0.24058832 0 0 0 -0.1871,0.0969 l -0.5012,0.66823 a 0.24058832,0.24058832 0 1 0 0.3843,0.28734 l 0.07,-0.0935 0,2.15502 a 0.2406,0.2406 0 1 0 0.4812,0 l 0,-2.87339 a 0.24058832,0.24058832 0 0 0 -0.2473,-0.24056 z" /><path
       id="path4250"
       style="color:#000000;text-indent:0;text-transform:none;block-progression:tb;fill:#000000"
       inkscape:connector-curvature="0"
       d="m -1248.5201,237.7683 a 0.24058832,0.24058832 0 0 0 -0.1838,0.0969 l -0.5011,0.66823 a 0.24058832,0.24058832 0 1 0 0.3842,0.28734 l 0.067,-0.0902 0,2.15165 a 0.24058832,0.24058832 0 1 0 0.4811,0 l 0,-2.87339 a 0.24058832,0.24058832 0 0 0 -0.2472,-0.24056 z" /><path
       id="rect4252"
       style="color:#000000;text-indent:0;text-transform:none;block-progression:tb;fill:#000000"
       inkscape:connector-curvature="0"
       d="m -1242.3726,237.7683 c -0.6302,0 -1.1461,0.51579 -1.1461,1.14604 l 0,1.06579 c 0,0.63021 0.5158,1.14268 1.1461,1.14268 0.6302,0 1.146,-0.51246 1.146,-1.14268 l 0,-1.06579 c 0,-0.63021 -0.5158,-1.14604 -1.146,-1.14604 z m 0,0.48112 c 0.372,0 0.6649,0.29289 0.6649,0.66489 l 0,1.06578 c 0,0.372 -0.2929,0.66155 -0.6649,0.66155 -0.372,0 -0.6649,-0.28955 -0.6649,-0.66155 l 0,-1.06578 c 0,-0.372 0.2929,-0.66489 0.6649,-0.66489 z" /><path
       id="path4254"
       style="color:#000000;text-indent:0;text-transform:none;block-progression:tb;fill:#000000"
       inkscape:connector-curvature="0"
       d="m -1244.6933,239.00106 c -0.5849,0 -1.0634,0.47853 -1.0634,1.06338 0,0.58482 0.4785,1.06337 1.0634,1.06337 0.5848,0 1.0633,-0.47853 1.0633,-1.06337 0,-0.58483 -0.4785,-1.06338 -1.0633,-1.06338 z m 0,0.47851 c 0.3248,0 0.5848,0.26004 0.5848,0.58485 0,0.3248 -0.26,0.58484 -0.5848,0.58484 -0.3248,0 -0.5849,-0.26004 -0.5849,-0.58484 0,-0.32481 0.2601,-0.58485 0.5849,-0.58485 z" /><path
       id="path4258"
       style="color:#000000;text-indent:0;text-transform:none;block-progression:tb;fill:#000000"
       inkscape:connector-curvature="0"
       d="m -1244.6942,237.7683 c -0.5848,0 -1.0625,0.47765 -1.0625,1.0625 l 0,1.2295 a 0.24058832,0.24058832 0 1 0 0.4811,0 l 0,-1.2295 c 0,-0.3248 0.2566,-0.58135 0.5814,-0.58135 0.2347,0 0.4463,0.13799 0.5379,0.35415 a 0.24109011,0.24109011 0 1 0 0.4444,-0.1871 c -0.1664,-0.39283 -0.5557,-0.64818 -0.9823,-0.64818 z" /><path
       id="path4261"
       style="color:#000000;text-indent:0;text-transform:none;block-progression:tb;fill:#000000"
       inkscape:connector-curvature="0"
       d="m -1247.6347,239.13038 a 0.24084694,0.24084694 0 1 0 0.023,0.48112 l 1.243,0 a 0.24058832,0.24058832 0 1 0 0,-0.48112 l -1.243,0 a 0.24058832,0.24058832 0 0 0 -0.023,0 z" /><path
       id="rect4271"
       style="color:#000000;text-indent:0;text-transform:none;block-progression:tb;fill:#000000"
       inkscape:connector-curvature="0"
       d="m -1167.3004,149.06321 c -0.585,0 -1.094,0.3311 -1.3443,0.81897 a 0.21553637,0.21553637 0 1 0 0.3825,0.19666 c 0.1786,-0.34803 0.5392,-0.58459 0.9617,-0.58459 0.602,0 1.0803,0.47833 1.0803,1.08026 l 0,1.84002 c 0,0.60195 -0.4783,1.08027 -1.0803,1.08027 -0.3859,0 -0.7192,-0.19606 -0.9105,-0.4957 a 0.21561421,0.21561421 0 1 0 -0.3637,0.23169 c 0.268,0.41965 0.74,0.69505 1.2743,0.69505 0.8333,0 1.5113,-0.67804 1.5113,-1.51131 l 0,-1.84002 c 0,-0.8333 -0.6781,-1.5113 -1.5113,-1.5113 z" /><path
       id="rect4273"
       style="color:#000000;text-indent:0;text-transform:none;block-progression:tb;fill:#000000"
       inkscape:connector-curvature="0"
       d="m -1160.6624,149.06321 c -0.8333,0 -1.5087,0.67802 -1.5087,1.5113 l 0,1.84002 c 0,0.83329 0.6754,1.51131 1.5087,1.51131 0.8333,0 1.5113,-0.67804 1.5113,-1.51131 l 0,-1.84002 c 0,-0.8333 -0.6781,-1.5113 -1.5113,-1.5113 z m 0,0.43104 c 0.6019,0 1.0802,0.47832 1.0802,1.08026 l 0,1.84002 c 0,0.60195 -0.4783,1.08027 -1.0802,1.08027 -0.602,0 -1.0776,-0.47833 -1.0776,-1.08027 l 0,-1.84002 c 0,-0.60196 0.4756,-1.08026 1.0776,-1.08026 z" /><path
       id="path4275"
       style="color:#000000;text-indent:0;text-transform:none;block-progression:tb;fill:#000000"
       inkscape:connector-curvature="0"
       d="m -1165.0918,149.06321 a 0.21580053,0.21580053 0 0 0 0.022,0.43104 l 1.5652,0 -1.0669,1.50863 a 0.21553637,0.21553637 0 0 0 0.2021,0.33944 c 0.4932,-0.0591 0.7776,0.0467 0.9645,0.21013 0.1868,0.1634 0.2871,0.40845 0.3259,0.66541 0.041,0.26909 -0.024,0.57128 -0.1643,0.8109 -0.1398,0.23961 -0.3458,0.40905 -0.5792,0.45259 -0.3858,0.072 -0.8771,-0.14524 -1.056,-0.50378 a 0.21568522,0.21568522 0 0 0 -0.3853,0.19397 c 0.2791,0.55925 0.9331,0.84213 1.5194,0.73276 0.3822,-0.0713 0.6839,-0.33355 0.8729,-0.65733 0.1889,-0.32378 0.2754,-0.71505 0.2182,-1.0938 -0.049,-0.32365 -0.178,-0.67205 -0.4661,-0.92406 -0.2078,-0.18181 -0.4946,-0.29976 -0.854,-0.32598 l 1.0614,-1.50053 a 0.21553637,0.21553637 0 0 0 -0.1778,-0.33944 l -1.9801,0 a 0.21553637,0.21553637 0 0 0 -0.021,0 z" /><path
       id="path4281"
       style="color:#000000;text-indent:0;text-transform:none;block-progression:tb;fill:#000000"
       inkscape:connector-curvature="0"
       d="m -1167.2254,151.28047 a 0.21580053,0.21580053 0 0 0 0.022,0.43104 l 1.1315,0 a 0.21553637,0.21553637 0 1 0 0,-0.43104 l -1.1315,0 a 0.21553637,0.21553637 0 0 0 -0.022,0 z" /><path
       id="path4285"
       style="color:#000000;text-indent:0;text-transform:none;block-progression:tb;fill:#cc9168"
       inkscape:connector-curvature="0"
       d="m -1167.0271,181.95832 a 0.30176127,0.30176127 0 0 0 -0.2587,0.16434 l -1.8965,3.60995 -6.5006,7.54049 a 0.30185778,0.30185778 0 1 0 0.458,0.39333 l 6.5249,-7.57283 a 0.30176127,0.30176127 0 0 0 0.04,-0.0566 l 1.9073,-3.63417 a 0.30176127,0.30176127 0 0 0 -0.2748,-0.44451 z" /><path
       id="path4287"
       style="color:#000000;text-indent:0;text-transform:none;block-progression:tb;fill:#ffffff"
       inkscape:connector-curvature="0"
       d="m -1175.4755,192.2791 c -0.6681,0 -1.2177,0.54693 -1.2177,1.21501 0,0.66806 0.5496,1.21769 1.2177,1.21769 0.6681,0 1.215,-0.54963 1.215,-1.21769 a 0.30176127,0.30176127 0 1 0 -0.6034,0 c 0,0.34193 -0.2696,0.61423 -0.6116,0.61423 -0.3419,0 -0.6142,-0.2723 -0.6142,-0.61423 0,-0.34192 0.2723,-0.61153 0.6142,-0.61153 l 0.024,0 a 0.30202851,0.30202851 0 1 0 0.027,-0.60345 c -0.017,-8.6e-4 -0.034,0 -0.051,0 z" /><circle
       r="4.6798439"
       cy="180.97083"
       cx="-1162.9548"
       id="path4283"
       style="fill:#b3b3b3" /><circle
       r="3.6784041"
       cy="180.97028"
       cx="-1162.9541"
       id="path4294"
       style="fill:#808080" /><path
       id="path4289"
       style="fill:#cccccc"
       inkscape:connector-curvature="0"
       d="m -1163.4978,177.37639 c -1.75,0.26201 -3.0927,1.77079 -3.0927,3.59382 0,1.82303 1.3427,3.33443 3.0927,3.5965 l 0,-7.19024 z m 1.0884,0.003 0,7.18489 c 1.7486,-0.26323 3.09,-1.77174 3.09,-3.59382 0,-1.822 -1.3414,-3.32788 -3.09,-3.59107 z" /><path
       id="path4296"
       sodipodi:nodetypes="cccccscccsc"
       style="color:#000000;text-indent:0;text-transform:none;block-progression:tb;fill:#cc9168"
       inkscape:connector-curvature="0"
       d="m -1202.8818,222.46644 c -0.087,8.6e-4 -0.173,0.0411 -0.229,0.10776 l -6.5275,7.57282 c -0.015,0.0182 -0.027,0.0381 -0.038,0.0593 l -2.9414,2.25373 c -0.073,0.14034 -0.012,0.33478 0.1279,0.40813 0.1404,0.0733 0.3348,0.0124 0.4082,-0.12796 l 2.9226,-2.2214 6.506,-7.55127 c 0.076,-0.0869 0.096,-0.21953 0.048,-0.32476 -0.048,-0.10524 -0.1612,-0.17726 -0.2769,-0.17632 z" /><circle
       r="4.6798439"
       cy="-235.27646"
       cx="1215.382"
       id="path4300"
       style="fill:#c5c5bf"
       transform="scale(-1,-1)" /><circle
       r="3.6784041"
       cy="-235.26924"
       cx="1215.3822"
       id="path4302"
       style="fill:#808080"
       transform="scale(-1,-1)" /><path
       id="path4304"
       d="m -1214.8388,238.87175 c 1.75,-0.26202 3.0927,-1.77079 3.0927,-3.59382 0,-1.82303 -1.3427,-3.33443 -3.0927,-3.5965 l 0,7.19024 z m -1.0883,-0.003 0,-7.18489 c -1.7487,0.26323 -3.0901,1.77174 -3.0901,3.59383 0,1.82199 1.3414,3.32787 3.0901,3.59106 z"
       style="fill:#cccccc"
       inkscape:connector-curvature="0" /><path
       id="path4329"
       style="fill:#000000"
       d="m -1208.4439,146.7675 19.7838,49.65302 1.9449,2.81666 0.064,0.15732 -0.014,-0.0845 0.049,0.0703 -0.064,-0.15732 -0.5589,-3.37753 -20.3209,-49.43577 c -0.088,-0.21364 -0.4735,-0.87208 -0.8119,-0.73511 -0.3384,0.13696 -0.1576,0.87828 -0.072,1.09285 z"
       sodipodi:nodetypes="scccccccsas"
       inkscape:transform-center-y="-45.177267"
       inkscape:connector-curvature="0"
       inkscape:transform-center-x="18.373512" /><path
       id="rect4358"
       style="color:#000000;text-indent:0;text-transform:none;block-progression:tb;fill:#000000"
       inkscape:connector-curvature="0"
       d="m -1170.1073,159.09864 0.2126,0.11082 6.173,3.21753 0.2103,0.10958 0.2102,-0.10958 6.1731,-3.21753 0.2126,-0.11082 -0.2102,-0.10957 -6.1731,-3.21753 -0.2126,-0.11082 -0.2126,0.11082 -6.1731,3.21753 -0.2102,0.10957 z m 0.8457,0 5.7502,-2.99709 5.7526,2.9983 -5.7502,2.99709 -5.7526,-2.99839 z" /><path
       id="path4362"
       style="color:#000000;text-indent:0;text-transform:none;block-progression:tb;fill:#000000"
       inkscape:connector-curvature="0"
       d="m -1164.6607,157.59173 -0.1967,0.11854 -0.9833,0.60075 -0.062,0.0377 0,0.0727 0,0.38524 0.2586,0 0,-0.31251 0.7247,-0.44181 0,0.82167 -0.3098,0.32867 -0.081,0.0889 0.081,0.0889 0.3098,0.32867 0,0.82166 -0.7247,-0.44182 0,-0.3125 -0.2586,0 0,0.38525 0,0.0727 0.062,0.0377 0.9833,0.60076 0.1967,0.11853 0,-0.22899 0,-1.10449 0,-0.0512 -0.035,-0.0377 -0.2613,-0.27748 0.2613,-0.28018 0.035,-0.0377 0,-0.0512 0,-1.10182 0,-0.22898 z" /><path
       id="path4366"
       style="color:#000000;text-indent:0;text-transform:none;block-progression:tb;fill:#000000"
       inkscape:connector-curvature="0"
       d="m -1164.1159,157.05035 0,4.18917 0.2586,0 0,-4.18917 -0.2586,0 z m 0.9536,0 0,4.18917 0.2586,0 0,-4.18917 -0.2586,0 z" /><path
       id="path4369"
       style="color:#000000;text-indent:0;text-transform:none;block-progression:tb;fill:#000000"
       inkscape:connector-curvature="0"
       d="m -1163.1521,158.07708 -0.9536,2.10941 0.2343,0.10507 0.9564,-2.10941 -0.237,-0.10506 z" /><path
       id="path4371"
       style="color:#000000;text-indent:0;text-transform:none;block-progression:tb;fill:#000000"
       inkscape:connector-curvature="0"
       d="m -1162.4245,157.3038 0,0.22629 0,3.23279 0.2586,0 0,-3.00917 0.6897,0.39602 0,1.9801 0.2586,0 0,-2.05278 0,-0.0754 -0.065,-0.0377 -0.9483,-0.54689 -0.1939,-0.11315 z" /><path
       id="path4373"
       style="color:#000000;text-indent:0;text-transform:none;block-progression:tb;fill:#000000"
       inkscape:connector-curvature="0"
       d="m -1167.5349,164.88921 c -0.3628,0 -0.6493,0.31523 -0.6493,0.68966 a 0.12935,0.12935 0 1 0 0.2587,0 c 0,-0.24455 0.1782,-0.43104 0.3906,-0.43104 0.2123,0 0.3906,0.18649 0.3906,0.43104 0,0.0877 -0.01,0.15879 -0.043,0.22898 -0.036,0.0702 -0.105,0.14825 -0.2559,0.23439 -0.3637,0.20761 -0.7128,0.61543 -0.7705,1.21225 a 0.12932872,0.12932872 0 0 0 0.1293,0.14009 l 1.0587,0 a 0.12932872,0.12932872 0 1 0 0,-0.25863 l -0.897,0 c 0.086,-0.425 0.3392,-0.71629 0.6088,-0.87018 0.181,-0.10333 0.2953,-0.21698 0.3583,-0.33944 0.063,-0.12246 0.07,-0.24519 0.07,-0.34752 0,-0.37443 -0.2864,-0.68966 -0.6492,-0.68966 z" /><path
       id="path4157-8"
       style="color:#000000;text-indent:0;text-transform:none;block-progression:tb;fill:#000000"
       inkscape:connector-curvature="0"
       d="m -1163.215,164.89007 a 0.12932872,0.12932872 0 0 0 -0.092,0.0539 l -1.0911,1.59484 a 0.12932872,0.12932872 0 0 0 0.1051,0.20206 l 0.9645,0 0,0.52263 a 0.12932872,0.12932872 0 1 0 0.2586,0 l 0,-0.52263 0.046,0 a 0.12932872,0.12932872 0 1 0 0,-0.25863 l -0.046,0 0,-1.46286 a 0.12932872,0.12932872 0 0 0 -0.1455,-0.12931 z m -0.1132,0.54419 0,1.04794 -0.7166,0 0.7166,-1.04794 z" /><path
       id="path4397"
       style="color:#000000;text-indent:0;text-transform:none;block-progression:tb;fill:#000000"
       inkscape:connector-curvature="0"
       d="m -1157.2995,164.89179 a 0.12932872,0.12932872 0 0 0 -0.1023,0.12932 l 0,0.96173 a 0.12932872,0.12932872 0 0 0 0.237,0.07 c 0.072,-0.11116 0.2835,-0.19665 0.4661,-0.19665 0.2705,0 0.4822,0.21086 0.4822,0.47953 l 0,0.32058 c 0,0.26866 -0.2117,0.47953 -0.4822,0.47953 -0.1824,0 -0.3875,-0.10957 -0.4634,-0.24246 a 0.12932872,0.12932872 0 1 0 -0.2236,0.12931 c 0.1347,0.23585 0.4114,0.37177 0.687,0.37177 0.4088,0 0.7408,-0.33014 0.7408,-0.73815 l 0,-0.32058 c 0,-0.40801 -0.332,-0.73816 -0.7408,-0.73816 -0.1493,0 -0.3082,0.0352 -0.4445,0.10776 l 0,-0.55496 0.9105,0 a 0.12932872,0.12932872 0 1 0 0,-0.25862 l -1.0398,0 a 0.12932872,0.12932872 0 0 0 -0.027,0 z" /><path
       id="path4250-1"
       style="color:#000000;text-indent:0;text-transform:none;block-progression:tb;fill:#000000"
       inkscape:connector-curvature="0"
       d="m -1167.7099,170.30736 a 0.12932872,0.12932872 0 0 0 -0.1024,0.0539 l -0.3852,0.52263 a 0.12932872,0.12932872 0 1 0 0.2074,0.15356 l 0.1536,-0.20744 0,1.85347 a 0.12932872,0.12932872 0 1 0 0.2586,0 l 0,-2.24675 a 0.12932872,0.12932872 0 0 0 -0.132,-0.12931 z" /><path
       id="path4254-5"
       style="color:#000000;text-indent:0;text-transform:none;block-progression:tb;fill:#000000"
       inkscape:connector-curvature="0"
       d="m -1164.4625,171.26771 c -0.4243,0 -0.77,0.34663 -0.77,0.77193 0,0.42532 0.3457,0.77194 0.77,0.77194 0.4243,0 0.7701,-0.34662 0.7701,-0.77194 0,-0.4253 -0.3458,-0.77193 -0.7701,-0.77193 z m 0,0.25963 c 0.2847,0 0.5111,0.22694 0.5111,0.5123 0,0.28538 -0.2264,0.51578 -0.5111,0.51578 -0.2847,0 -0.5111,-0.2304 -0.5111,-0.51578 0,-0.28536 0.2264,-0.5123 0.5111,-0.5123 z" /><path
       id="path4258-9"
       style="color:#000000;text-indent:0;text-transform:none;block-progression:tb;fill:#000000"
       inkscape:connector-curvature="0"
       d="m -1164.4633,170.30736 c -0.4246,0 -0.7705,0.34811 -0.7705,0.77317 l 0,0.95906 a 0.12932872,0.12932872 0 1 0 0.2586,0 l 0,-0.95906 c 0,-0.28561 0.2274,-0.51455 0.5119,-0.51455 0.206,0 0.3936,0.12472 0.4741,0.31519 a 0.12932872,0.12932872 0 1 0 0.2371,-0.10237 c -0.1206,-0.28532 -0.4018,-0.47144 -0.7112,-0.47144 z" /><path
       id="path4446"
       style="color:#000000;text-indent:0;text-transform:none;block-progression:tb;fill:#000000"
       inkscape:connector-curvature="0"
       d="m -1166.4332,171.85306 c 0.4243,0 0.7701,-0.34662 0.7701,-0.77193 0,-0.4253 -0.3458,-0.77193 -0.7701,-0.77193 -0.4243,0 -0.7701,0.34663 -0.7701,0.77193 0,0.42531 0.3458,0.77193 0.7701,0.77193 z m 0,-0.25961 c -0.2847,0 -0.5111,-0.22695 -0.5111,-0.51232 0,-0.28537 0.2264,-0.51577 0.5111,-0.51577 0.2847,0 0.5111,0.2304 0.5111,0.51577 0,0.28537 -0.2264,0.51232 -0.5111,0.51232 z" /><path
       id="path4448"
       style="color:#000000;text-indent:0;text-transform:none;block-progression:tb;fill:#000000"
       inkscape:connector-curvature="0"
       d="m -1165.7918,170.94874 a 0.12932872,0.12932872 0 0 0 -0.1293,0.13201 l 0,0.95906 c 0,0.28562 -0.2274,0.51455 -0.5119,0.51455 -0.206,0 -0.3909,-0.12203 -0.4714,-0.3125 a 0.12985004,0.12985004 0 1 0 -0.2398,0.0997 c 0.1206,0.28532 0.4018,0.47145 0.7112,0.47145 0.4246,0 0.7705,-0.34812 0.7705,-0.77317 l 0,-0.95906 a 0.12932872,0.12932872 0 0 0 -0.1293,-0.13201 z" /><path
       id="path4458"
       style="color:#000000;text-indent:0;text-transform:none;block-progression:tb;fill:#000000"
       inkscape:connector-curvature="0"
       d="m -1160.3366,170.65736 a 0.12932872,0.12932872 0 0 0 -0.1158,0.12931 l 0,1.60019 a 0.12932872,0.12932872 0 1 0 0.2586,0 l 0,-1.47087 0.6708,0 a 0.12932872,0.12932872 0 1 0 0,-0.25863 l -0.8001,0 a 0.12932872,0.12932872 0 0 0 -0.014,0 z" /><path
       id="path4298"
       style="color:#000000;text-indent:0;text-transform:none;block-progression:tb;fill:#ffffff"
       inkscape:connector-curvature="0"
       d="m -1202.8611,223.96645 c 0.6681,0 1.2177,-0.54694 1.2177,-1.21501 0,-0.66806 -0.5496,-1.21768 -1.2177,-1.21768 -0.668,0 -1.215,0.54962 -1.215,1.21768 a 0.30176127,0.30176127 0 1 0 0.6035,0 c 0,-0.34193 0.2696,-0.61423 0.6115,-0.61423 0.3419,0 0.6142,0.2723 0.6142,0.61423 0,0.34193 -0.2723,0.61154 -0.6142,0.61154 l -0.024,0 a 0.30202851,0.30202851 0 1 0 -0.027,0.60345 c 0.017,8.7e-4 0.034,0 0.051,0 z" /><path
       id="path4315"
       style="fill:#b3b3b3"
       d="m -1186.355,203.06196 -2.4688,-6.57368 1.7828,-0.7215 2.7979,6.44049 z"
       sodipodi:nodetypes="ccccc"
       inkscape:transform-center-y="-18.2881"
       inkscape:connector-curvature="0"
       inkscape:transform-center-x="7.3145463" /><rect
       id="rect3790"
       style="fill:#333333"
       rx="1.9396722"
       ry="1.9396722"
       height="3.8793445"
       width="25.37005"
       y="213.05257"
       x="-1164.309" /><path
       id="rect3792"
       style="fill:#333333"
       inkscape:connector-curvature="0"
       d="m -1163.8944,222.34575 c -5.6143,0 -10.2776,4.07227 -11.1992,9.42335 l -6.1181,0 c -1.0745,0 -1.9396,0.8651 -1.9396,1.93968 0,1.07458 0.8651,1.93967 1.9396,1.93967 l 6.1181,0 c 0.9202,5.35263 5.5837,9.42594 11.1992,9.42594 5.6154,0 10.2786,-4.07348 11.1993,-9.42594 l 11.8156,0 c 1.0746,0 1.9397,-0.86509 1.9397,-1.93967 0,-1.07458 -0.8651,-1.93968 -1.9397,-1.93968 l -11.8156,0 c -0.9216,-5.35349 -5.5871,-9.42249 -11.1993,-9.42249 z" /><path
       id="path3802"
       sodipodi:rx="7.6632986"
       sodipodi:ry="7.6632986"
       style="fill:#000000"
       sodipodi:type="arc"
       d="m -1156.2306,233.71149 a 7.6632986,7.6632986 0 0 1 -7.6528,7.66329 7.6632986,7.6632986 0 0 1 -7.6738,-7.64223 7.6632986,7.6632986 0 0 1 7.6317,-7.6843 7.6632986,7.6632986 0 0 1 7.6948,7.62111"
       sodipodi:open="true"
       sodipodi:cy="233.71149"
       sodipodi:cx="-1163.8939"
       sodipodi:end="6.2776887"
       sodipodi:start="0" /><path
       id="path3804"
       style="fill:#333333"
       inkscape:connector-curvature="0"
       d="m -1163.8944,226.91475 c -3.7514,0 -6.7915,3.0402 -6.7915,6.79153 0,0.66292 0.095,1.30432 0.2721,1.91001 l 12.557,-5.01625 c -1.1284,-2.18846 -3.4073,-3.68537 -6.0372,-3.68537 z m 6.5195,4.88418 -12.5596,5.01625 c 1.1281,2.18795 3.4087,3.68538 6.0399,3.68538 3.7514,0 6.7915,-3.04287 6.7915,-6.7942 l 0,-0.035 c 0,-0.64958 -0.099,-1.27829 -0.2721,-1.87235 z" /><rect
       id="rect3794"
       style="fill:#333333"
       rx="1.9396722"
       ry="1.9396722"
       height="3.8793445"
       width="61.207432"
       y="249.00978"
       x="-1200.1472" /><path
       id="path5724"
       d="m -1174.1709,142.55539 c -1.2947,0 -2.3465,1.05182 -2.3465,2.34649 l 0,3.4833 c 0,1.29467 1.0517,2.34916 2.3465,2.34916 1.2947,0 2.3491,-1.05449 2.3491,-2.34916 l 0,-3.4833 c 0,-1.29467 -1.0544,-2.34649 -2.3491,-2.34649 z m 0,0.68966 c 0.9246,0 1.6595,0.73227 1.6595,1.65683 l 0,3.4833 c 0,0.92458 -0.735,1.6595 -1.6595,1.6595 -0.9245,0 -1.6568,-0.73495 -1.6568,-1.6595 l 0,-3.4833 c 0,-0.92458 0.7322,-1.65683 1.6568,-1.65683 z"
       style="color:#000000;text-indent:0;text-transform:none;block-progression:tb;fill:#000000"
       inkscape:connector-curvature="0" /><path
       id="path5726"
       d="m -1232.1588,161.10297 a 0.36287387,0.36287387 0 1 0 0.036,0.72483 l 2.632,0 -1.794,2.53692 a 0.36245145,0.36245145 0 0 0 0.3398,0.57081 c 0.8294,-0.0995 1.3077,0.0786 1.6218,0.35335 0.3141,0.27477 0.4829,0.68684 0.5482,1.11898 0.068,0.4525 -0.041,0.96061 -0.2764,1.36363 -0.2351,0.40295 -0.5815,0.68786 -0.974,0.76107 -0.6487,0.12102 -1.4749,-0.24424 -1.7758,-0.84715 a 0.36268712,0.36268712 0 0 0 -0.6479,0.32618 c 0.4694,0.94044 1.5691,1.41613 2.5551,1.23225 0.6426,-0.1199 1.15,-0.5609 1.4677,-1.10535 0.3178,-0.54446 0.4631,-1.20243 0.367,-1.83924 -0.082,-0.54426 -0.2993,-1.1301 -0.7837,-1.5539 -0.3495,-0.30571 -0.8318,-0.50404 -1.4361,-0.54815 l 1.7849,-2.5233 a 0.36245145,0.36245145 0 0 0 -0.299,-0.5708 l -3.3296,0 a 0.36245145,0.36245145 0 0 0 -0.036,0 z"
       style="color:#000000;text-indent:0;text-transform:none;block-progression:tb;fill:#000000"
       inkscape:connector-curvature="0" /><path
       id="path5728"
       d="m -1205.9904,145.31059 c -1.2949,0 -2.3468,1.05182 -2.3468,2.34674 l 0,3.48676 c 0,1.29492 1.0519,2.34674 2.3468,2.34674 1.2949,0 2.3515,-1.05182 2.3515,-2.34674 l 0,-3.48676 c 0,-1.29492 -1.0567,-2.34674 -2.3515,-2.34674 z m 0,0.68686 c 0.9262,0 1.6647,0.73363 1.6647,1.65993 l 0,3.48675 c 0,0.92622 -0.7385,1.65993 -1.6647,1.65993 -0.9262,0 -1.6599,-0.73364 -1.6599,-1.65993 l 0,-3.48675 c 0,-0.92622 0.7336,-1.65993 1.6599,-1.65993 z"
       style="color:#000000;text-indent:0;text-transform:none;block-progression:tb;fill:#000000"
       inkscape:connector-curvature="0" /><path
       id="path5730"
       d="m -1210.8982,145.31317 a 0.34314094,0.34314094 0 0 0 -0.2431,0.15726 l -3.3786,5.31815 a 0.34314094,0.34314094 0 0 0 0.2907,0.5242 l 3.0308,0 0,1.82993 a 0.34314094,0.34314094 0 1 0 0.6862,0 l 0,-1.82993 0.2049,0 a 0.34314094,0.34314094 0 1 0 0,-0.68621 l -0.2049,0 0,-4.97031 a 0.34314094,0.34314094 0 0 0 -0.386,-0.3431 z m -0.3002,1.52019 0,3.79322 -2.4066,0 2.4066,-3.79322 z"
       style="color:#000000;text-indent:0;text-transform:none;block-progression:tb;fill:#000000"
       inkscape:connector-curvature="0" /><path
       id="path5732"
       style="color:#000000;text-indent:0;text-transform:none;block-progression:tb;fill:#000000"
       inkscape:connector-curvature="0"
       d="m -1199.4636,145.31059 c -1.295,0 -2.3468,1.05182 -2.3468,2.34674 l 0,3.48676 c 0,1.29492 1.0518,2.34674 2.3468,2.34674 1.2949,0 2.3514,-1.05182 2.3514,-2.34674 l 0,-3.48676 c 0,-1.29492 -1.0566,-2.34674 -2.3514,-2.34674 z m 0,0.68686 c 0.9262,0 1.6646,0.73363 1.6646,1.65993 l 0,3.48675 c 0,0.92622 -0.7384,1.65993 -1.6646,1.65993 -0.9263,0 -1.66,-0.73364 -1.66,-1.65993 l 0,-3.48675 c 0,-0.92622 0.7337,-1.65993 1.66,-1.65993 z" /><path
       id="path5734"
       style="fill:none;stroke:#000000;stroke-width:0.25862294;stroke-linecap:round;stroke-linejoin:round"
       inkscape:connector-curvature="0"
       d="m -1163.1978,170.43322 1.2381,0 -0.982,2.24925" /><path
       id="path5736"
       d="m -1159.54,165.01593 1.2381,0 -0.982,2.24916"
       style="fill:none;stroke:#000000;stroke-width:0.25862294;stroke-linecap:round;stroke-linejoin:round"
       inkscape:connector-curvature="0" /><path
       id="rect5738"
       style="color:#000000;text-indent:0;text-transform:none;block-progression:tb;fill:#000000"
       inkscape:connector-curvature="0"
       d="m -1161.2297,164.88662 c -0.4123,0 -0.7462,0.33657 -0.7462,0.74893 l 0,1.01027 c 0,0.41236 0.3339,0.74893 0.7462,0.74893 0.4124,0 0.7489,-0.33657 0.7489,-0.74893 l 0,-1.01027 c 0,-0.41236 -0.3365,-0.74893 -0.7489,-0.74893 z m 0,0.25863 c 0.2736,0 0.4903,0.21674 0.4903,0.4903 l 0,1.01027 c 0,0.27356 -0.2167,0.4903 -0.4903,0.4903 -0.2735,0 -0.4876,-0.21674 -0.4876,-0.4903 l 0,-1.01027 c 0,-0.27356 0.2141,-0.4903 0.4876,-0.4903 z" /><path
       id="rect5740"
       style="color:#000000;text-indent:0;text-transform:none;block-progression:tb;fill:#000000"
       inkscape:connector-curvature="0"
       d="m -1165.497,164.88662 c -0.4123,0 -0.7462,0.33657 -0.7462,0.74893 l 0,1.01027 c 0,0.41236 0.3339,0.74893 0.7462,0.74893 0.4124,0 0.749,-0.33657 0.749,-0.74893 l 0,-1.01027 c 0,-0.41236 -0.3366,-0.74893 -0.749,-0.74893 z m 0,0.25863 c 0.2736,0 0.4903,0.21674 0.4903,0.4903 l 0,1.01027 c 0,0.27356 -0.2167,0.4903 -0.4903,0.4903 -0.2735,0 -0.4876,-0.21674 -0.4876,-0.4903 l 0,-1.01027 c 0,-0.27356 0.2141,-0.4903 0.4876,-0.4903 z" /><path
       id="path4250-1-3"
       style="color:#000000;text-indent:0;text-transform:none;block-progression:tb;fill:#000000"
       inkscape:connector-curvature="0"
       d="m -1280.6928,207.04475 a 0.22996753,0.22996753 0 0 0 -0.182,0.0958 l -0.6851,0.92932 a 0.22996753,0.22996753 0 1 0 0.3689,0.27306 l 0.273,-0.36887 0,3.29589 a 0.22996753,0.22996753 0 1 0 0.4599,0 l 0,-3.99529 a 0.22996753,0.22996753 0 0 0 -0.2347,-0.22994 z" /><path
       id="rect5738-5"
       style="color:#000000;text-indent:0;text-transform:none;block-progression:tb;fill:#000000"
       inkscape:connector-curvature="0"
       d="m -1278.3911,207.04561 c -0.7332,0 -1.3317,0.5937 -1.3317,1.327 l 0,1.80122 c 0,0.73327 0.5985,1.32699 1.3317,1.32699 0.7333,0 1.3318,-0.59369 1.3318,-1.32699 l 0,-1.80122 c 0,-0.73328 -0.5985,-1.327 -1.3318,-1.327 z m 0,0.45989 c 0.4865,0 0.8719,0.38063 0.8719,0.86707 l 0,1.80123 c 0,0.48645 -0.3854,0.86707 -0.8719,0.86707 -0.4864,0 -0.8719,-0.38063 -0.8719,-0.86707 l 0,-1.80123 c 0,-0.48645 0.3855,-0.86707 0.8719,-0.86707 z" /><path
       id="rect5763"
       style="color:#000000;text-indent:0;text-transform:none;block-progression:tb;fill:#000000"
       inkscape:connector-curvature="0"
       d="m -1275.21,207.01458 c -0.7333,0 -1.3317,0.59369 -1.3317,1.32699 l 0,1.80122 c 0,0.73328 0.5985,1.327 1.3317,1.327 0.7333,0 1.3317,-0.5937 1.3317,-1.327 l 0,-1.80122 c 0,-0.73328 -0.5984,-1.32699 -1.3317,-1.32699 z m 0,0.45989 c 0.4865,0 0.8719,0.38063 0.8719,0.86708 l 0,1.80122 c 0,0.48644 -0.3854,0.86708 -0.8719,0.86708 -0.4864,0 -0.8719,-0.38064 -0.8719,-0.86708 l 0,-1.80122 c 0,-0.48646 0.3854,-0.86708 0.8719,-0.86708 z" /><path
       id="path5787"
       style="color:#000000;text-indent:0;text-transform:none;block-progression:tb;fill:#000000"
       d="m -1264.3297,178.45829 a 0.30176127,0.30176127 0 0 0 -0.1627,0.57659 l 9.4061,4.30271 a 0.30176127,0.30176127 0 1 0 0.2504,-0.54902 l -9.4061,-4.30271 a 0.30176127,0.30176127 0 0 0 -0.088,-0.0276 z"
       inkscape:transform-center-x="80.445539"
       inkscape:transform-center-y="-36.792951"
       inkscape:connector-curvature="0" /><path
       id="path5789"
       style="color:#000000;text-indent:0;text-transform:none;block-progression:tb;fill:#000000"
       d="m -1240.5442,146.82957 a 0.30176127,0.30176127 0 0 0 -0.3861,0.45805 l 6.7915,7.80128 a 0.30176127,0.30176127 0 1 0 0.4547,-0.39675 l -6.7916,-7.80127 a 0.30176127,0.30176127 0 0 0 -0.069,-0.0613 z"
       inkscape:transform-center-x="58.088233"
       inkscape:transform-center-y="-66.716051"
       inkscape:connector-curvature="0" /><path
       id="path5791"
       style="color:#000000;text-indent:0;text-transform:none;block-progression:tb;fill:#000000"
       d="m -1207.7577,128.43277 a 0.30176127,0.30176127 0 0 0 -0.535,0.26945 l 3.1793,9.84233 a 0.30176127,0.30176127 0 1 0 0.574,-0.18615 l -3.1794,-9.84319 a 0.30176127,0.30176127 0 0 0 -0.039,-0.0833 z"
       inkscape:transform-center-x="27.196249"
       inkscape:transform-center-y="-84.175668"
       inkscape:connector-curvature="0" /><path
       id="path5793"
       style="color:#000000;text-indent:0;text-transform:none;block-progression:tb;fill:#000000"
       d="m -1178.9281,123.9829 a 0.30176127,0.30176127 0 0 0 -0.592,0.0919 l -10e-4,10.34319 a 0.30176127,0.30176127 0 1 0 0.6034,-8.6e-4 l 10e-4,-10.34319 a 0.30176127,0.30176127 0 0 0 -0.011,-0.0912 z"
       inkscape:transform-center-x="-0.0020550689"
       inkscape:transform-center-y="-88.459897"
       inkscape:connector-curvature="0" /><path
       id="path5795"
       style="color:#000000;text-indent:0;text-transform:none;block-progression:tb;fill:#000000"
       d="m -1271.8393,202.73523 a 0.16276005,0.30176127 9.0712 0 0 -0.044,0.59236 l 5.511,0.86802 a 0.16276005,0.30176127 9.0712 1 0 0.094,-0.59598 l -5.511,-0.86803 a 0.16276005,0.30176127 9.0712 0 0 -0.05,0.004 z"
       inkscape:transform-center-x="89.863113"
       inkscape:transform-center-y="-14.240234"
       inkscape:connector-curvature="0" /><path
       id="path5797"
       style="color:#000000;text-indent:0;text-transform:none;block-progression:tb;fill:#000000"
       d="m -1270.3134,195.23258 a 0.16276005,0.30176127 13.749 0 0 -0.092,0.5868 l 5.4218,1.31458 a 0.16276005,0.30176127 13.749 1 0 0.1427,-0.58631 l -5.4219,-1.31458 a 0.16276005,0.30176127 13.749 0 0 -0.051,-8.6e-4 z"
       inkscape:transform-center-x="88.40284"
       inkscape:transform-center-y="-21.52113"
       inkscape:connector-curvature="0" /><path
       id="path5799"
       style="color:#000000;text-indent:0;text-transform:none;block-progression:tb;fill:#000000"
       d="m -1268.391,188.52217 a 0.16276005,0.30176127 18.012 0 0 -0.1355,0.57833 l 5.3091,1.71398 a 0.16276005,0.30176127 18.012 1 0 0.1859,-0.57408 l -5.3091,-1.71398 a 0.16276005,0.30176127 18.012 0 0 -0.05,-0.004 z"
       inkscape:transform-center-x="86.558294"
       inkscape:transform-center-y="-28.033718"
       inkscape:connector-curvature="0" /><path
       id="path5801"
       style="color:#000000;text-indent:0;text-transform:none;block-progression:tb;fill:#000000"
       d="m -1266.3392,182.87126 a 0.16276005,0.30176127 21.684 0 0 -0.1723,0.56846 l 5.1884,2.05054 a 0.16276005,0.30176127 21.684 1 0 0.2222,-0.56101 l -5.1884,-2.05053 a 0.16276005,0.30176127 21.684 0 0 -0.05,-0.007 z"
       inkscape:transform-center-x="84.585064"
       inkscape:transform-center-y="-33.519563"
       inkscape:connector-curvature="0" /><path
       id="path5803"
       style="color:#000000;text-indent:0;text-transform:none;block-progression:tb;fill:#000000"
       d="m -1260.1418,170.22201 a 0.16276005,0.30176127 30.294 0 0 -0.2554,0.53627 l 4.823,2.80416 a 0.16276005,0.30176127 30.294 1 0 0.3037,-0.52141 l -4.823,-2.80416 a 0.16276005,0.30176127 30.294 0 0 -0.048,-0.0149 z"
       inkscape:transform-center-x="78.613699"
       inkscape:transform-center-y="-45.804906"
       inkscape:connector-curvature="0" /><path
       id="path5805"
       style="color:#000000;text-indent:0;text-transform:none;block-progression:tb;fill:#000000"
       d="m -1255.1745,162.62453 a 0.16276005,0.30176127 35.84 0 0 -0.306,0.50907 l 4.5294,3.2571 a 0.16276005,0.30176127 35.84 1 0 0.3527,-0.48962 l -4.5295,-3.2571 a 0.16276005,0.30176127 35.84 0 0 -0.047,-0.0195 z"
       inkscape:transform-center-x="73.819495"
       inkscape:transform-center-y="-53.18748"
       inkscape:connector-curvature="0" /><path
       id="path5807"
       style="color:#000000;text-indent:0;text-transform:none;block-progression:tb;fill:#000000"
       d="m -1249.6477,155.71413 a 0.16276005,0.30176127 41.246 0 0 -0.3527,0.47797 l 4.2025,3.66934 a 0.16276005,0.30176127 41.246 1 0 0.3972,-0.45422 l -4.2024,-3.66934 a 0.16276005,0.30176127 41.246 0 0 -0.045,-0.0238 z"
       inkscape:transform-center-x="68.480187"
       inkscape:transform-center-y="-59.905319"
       inkscape:connector-curvature="0" /><path
       id="path5809"
       style="color:#000000;text-indent:0;text-transform:none;block-progression:tb;fill:#000000"
       d="m -1245.3709,151.16926 a 0.16276005,0.30176127 45.057 0 0 -0.3837,0.45346 l 3.9493,3.94055 a 0.16276005,0.30176127 45.057 1 0 0.4265,-0.4268 l -3.9492,-3.94055 a 0.16276005,0.30176127 45.057 0 0 -0.043,-0.0267 z"
       inkscape:transform-center-x="64.346383"
       inkscape:transform-center-y="-64.325029"
       inkscape:connector-curvature="0" /><path
       id="path5811"
       style="color:#000000;text-indent:0;text-transform:none;block-progression:tb;fill:#000000"
       d="m -1235.0657,142.31142 a 0.16276005,0.30176127 53.363 0 0 -0.4451,0.39329 l 3.3385,4.46978 a 0.16276005,0.30176127 53.363 1 0 0.4838,-0.36071 l -3.3386,-4.46978 a 0.16276005,0.30176127 53.363 0 0 -0.039,-0.0326 z"
       inkscape:transform-center-x="54.379448"
       inkscape:transform-center-y="-72.94633"
       inkscape:connector-curvature="0" /><path
       id="path5813"
       style="color:#000000;text-indent:0;text-transform:none;block-progression:tb;fill:#000000"
       d="m -1227.657,137.35104 a 0.16276005,0.30176127 58.81 0 0 -0.4804,0.34925 l 2.8992,4.76642 a 0.16276005,0.30176127 58.81 1 0 0.5158,-0.31316 l -2.8993,-4.76642 a 0.16276005,0.30176127 58.81 0 0 -0.035,-0.0361 z"
       inkscape:transform-center-x="47.209736"
       inkscape:transform-center-y="-77.778223"
       inkscape:connector-curvature="0" /><path
       id="path5815"
       style="color:#000000;text-indent:0;text-transform:none;block-progression:tb;fill:#000000"
       d="m -1220.4793,133.43979 a 0.16276005,0.30176127 63.803 0 0 -0.5091,0.30612 l 2.4733,5.00073 a 0.16276005,0.30176127 63.803 1 0 0.5411,-0.26707 l -2.4733,-5.00065 a 0.16276005,0.30176127 63.803 0 0 -0.032,-0.0391 z"
       inkscape:transform-center-x="40.260551"
       inkscape:transform-center-y="-81.592436"
       inkscape:connector-curvature="0" /><path
       id="path5817"
       style="color:#000000;text-indent:0;text-transform:none;block-progression:tb;fill:#000000"
       d="m -1214.5138,130.77236 a 0.16276005,0.30176127 67.795 0 0 -0.5291,0.26994 l 2.1193,5.16073 a 0.16276005,0.30176127 67.795 1 0 0.5583,-0.22876 l -2.1192,-5.16073 a 0.16276005,0.30176127 67.795 0 0 -0.029,-0.0412 z"
       inkscape:transform-center-x="34.483305"
       inkscape:transform-center-y="-84.196419"
       inkscape:connector-curvature="0" /><path
       id="path5819"
       style="color:#000000;text-indent:0;text-transform:none;block-progression:tb;fill:#000000"
       d="m -1200.5568,126.33963 a 0.16276005,0.30176127 76.746 0 0 -0.5646,0.18431 l 1.2904,5.42763 a 0.16276005,0.30176127 76.746 1 0 0.5872,-0.13909 l -1.2905,-5.42772 a 0.16276005,0.30176127 76.746 0 0 -0.023,-0.0452 z"
       inkscape:transform-center-x="20.962435"
       inkscape:transform-center-y="-88.537195"
       inkscape:connector-curvature="0" /><path
       id="path5821"
       style="color:#000000;text-indent:0;text-transform:none;block-progression:tb;fill:#000000"
       d="m -1194.7291,125.17202 a 0.16276005,0.30176127 80.377 0 0 -0.5752,0.14819 l 0.9441,5.49849 a 0.16276005,0.30176127 80.377 1 0 0.5948,-0.10164 l -0.9441,-5.49849 a 0.16276005,0.30176127 80.377 0 0 -0.02,-0.0466 z"
       inkscape:transform-center-x="15.31448"
       inkscape:transform-center-y="-89.686606"
       inkscape:connector-curvature="0" /><path
       id="path5823"
       style="color:#000000;text-indent:0;text-transform:none;block-progression:tb;fill:#000000"
       d="m -1189.2515,124.4192 a 0.16276005,0.30176127 83.754 0 0 -0.5829,0.11405 l 0.6186,5.54453 a 0.16276005,0.30176127 83.754 1 0 0.5998,-0.0664 l -0.6187,-5.54453 a 0.16276005,0.30176127 83.754 0 0 -0.017,-0.0477 z"
       inkscape:transform-center-x="10.004899"
       inkscape:transform-center-y="-90.433266"
       inkscape:connector-curvature="0" /><path
       id="path5825"
       style="color:#000000;text-indent:0;text-transform:none;block-progression:tb;fill:#000000"
       d="m -1184.1349,124.01014 a 0.16276005,0.30176127 86.889 0 0 -0.5883,0.082 l 0.3145,5.57005 a 0.16276005,0.30176127 86.889 1 0 0.6025,-0.0335 l -0.3145,-5.57005 a 0.16276005,0.30176127 86.889 0 0 -0.014,-0.0485 z"
       inkscape:transform-center-x="5.0439891"
       inkscape:transform-center-y="-90.844855"
       inkscape:connector-curvature="0" /><path
       id="path5829"
       style="fill:#000000;stroke:#000000;stroke-width:0.25862294;stroke-linecap:round;stroke-linejoin:round"
       d="m -1204.2904,144.61317 c -3.3584,-0.0872 -5.5423,-5.15599 -8.0526,-9.48457 -0.1588,-0.27384 -0.3686,-0.32834 -0.4195,-0.30772 -0.051,0.0206 -0.1613,0.20466 -0.085,0.51187 1.207,4.85642 3.1631,10.01733 0.8106,12.41563 3.1941,1.7495 4.4775,3.26684 7.1017,6.41721 l 0,0.007 c 10e-5,-0.002 6e-4,-0.004 5e-4,-0.006 -4e-4,-8.6e-4 -7e-4,-0.002 0,-0.002 -0.3055,-4.08874 -0.4361,-6.07264 0.6422,-9.55095 z"
       sodipodi:nodetypes="cszscccccc"
       inkscape:transform-center-y="-73.20835"
       inkscape:connector-curvature="0"
       inkscape:transform-center-x="29.363218" /><path
       id="path6078"
       sodipodi:nodetypes="sssssssssss"
       style="fill:url(#linearGradient6990)"
       inkscape:connector-curvature="0"
       d="m -1273.7531,114.26376 c -5.688,0 -10.2665,4.57884 -10.2665,10.26647 l 0,118.49242 c 0,5.6879 4.5789,10.26647 10.2665,10.26647 l 57.3548,0 c 2.5007,0 3.3771,-0.33829 4.8708,-1.83191 l 64.3178,-64.30229 c 2.0088,-2.00881 2.2225,-2.72321 2.2225,-5.3853 l 0,-57.23154 c 0,-5.6879 -4.5788,-10.26647 -10.2665,-10.26647 z" /></g><g
     id="g7150"
     transform="translate(43.31559,-714.73136)"><rect
       style="fill:#8c8c8c"
       height="4.809"
       width="2.1600001"
       y="434.78"
       x="279.72"
       id="rect22" /><polygon
       style="fill:#8c8c8c"
       points="279.72,437.905 281.88,437.905 283.32,437.243 283.32,436.466 278.28,436.466 278.28,437.243 "
       id="polygon52" /></g><g
     transform="translate(61.989467,-714.73136)"
     id="g8284"><rect
       id="rect8286"
       x="279.72"
       y="434.78"
       width="2.1600001"
       height="4.809"
       style="fill:#8c8c8c" /><polygon
       id="polygon8288"
       points="279.72,437.905 281.88,437.905 283.32,437.243 283.32,436.466 278.28,436.466 278.28,437.243 "
       style="fill:#8c8c8c" /></g></g></svg>